<svg width="6" height="11" viewBox="0 0 6 11" fill="none" xmlns="http://www.w3.org/2000/svg">
<path d="M3.67957 5.52122L0.279312 8.92148C0.100414 9.10144 -8.47451e-07 9.34489 -8.69636e-07 9.59865C-8.9182e-07 9.8524 0.100414 10.0958 0.279312 10.2758C0.368605 10.3658 0.47484 10.4373 0.591889 10.4861C0.708938 10.5348 0.834484 10.5599 0.961284 10.5599C1.08808 10.5599 1.21363 10.5348 1.33068 10.4861C1.44773 10.4373 1.55396 10.3658 1.64326 10.2758L5.71588 6.20319C5.80591 6.1139 5.87736 6.00766 5.92613 5.89062C5.97489 5.77357 6 5.64802 6 5.52122C6 5.39442 5.97489 5.26887 5.92613 5.15182C5.87736 5.03478 5.80591 4.92854 5.71588 4.83925L1.64326 0.718599C1.55351 0.629576 1.44706 0.559146 1.33004 0.511346C1.21301 0.463546 1.0877 0.439315 0.961285 0.440046C0.834874 0.439315 0.709562 0.463546 0.592534 0.511346C0.475506 0.559146 0.369064 0.629576 0.279313 0.718599C0.100415 0.898565 -1.30333e-07 1.14201 -1.52517e-07 1.39577C-1.74701e-07 1.64953 0.100415 1.89297 0.279313 2.07294L3.67957 5.52122Z" fill="white"/>
</svg>
