<svg width="185" height="53" viewBox="0 0 185 53" fill="none" xmlns="http://www.w3.org/2000/svg">
<g clip-path="url(#clip0_101_1765)">
<path d="M26.3535 0V26.5048L30.9303 21.8919L26.3535 0Z" fill="#4B6E8A"/>
<path d="M26.3521 0V26.5048L21.7656 21.8919L26.3521 0Z" fill="#D6D6D6"/>
<path d="M0 26.5048H26.3529L21.7664 21.8919L0 26.5048Z" fill="#4B6E8A"/>
<path d="M0 26.5048L21.7664 31.1081L26.3529 53V26.5048H0Z" fill="#D6D6D6"/>
<path d="M26.3535 26.5048V53L30.9303 31.1081L52.6967 26.5048H26.3535Z" fill="#4B6E8A"/>
<path d="M52.6967 26.5048H26.3535L30.9303 21.8919L52.6967 26.5048Z" fill="#D6D6D6"/>
<path d="M72.7272 28.8113H59.1895V30.3909H72.7272V28.8113Z" fill="#4B6E8A"/>
<path d="M184.999 28.8113H171.461V30.3909H184.999V28.8113Z" fill="#4B6E8A"/>
<path d="M59.2479 17.2793L60.5391 15.5155C61.5701 16.3877 63.3044 17.1146 65.1255 17.1146C66.9466 17.1146 67.6789 16.6785 67.6789 16.0195C67.6789 15.3605 66.6094 15.0504 64.7401 14.8566C62.2349 14.6046 59.6044 14.1685 59.6044 11.6488C59.6044 9.12918 61.6279 8.39267 64.8654 8.39267C68.1029 8.39267 68.8641 8.98382 70.1552 10.0983L68.8833 11.8233C67.8909 11.0383 66.3781 10.4472 64.663 10.4472C62.9479 10.4472 62.4083 10.796 62.4083 11.3872C62.4083 11.9783 63.3622 12.3078 65.376 12.5598C67.862 12.8699 70.4443 13.3157 70.4443 15.7191C70.4443 18.1224 68.4883 19.1981 65.087 19.1981C61.6857 19.1981 60.3271 18.2581 59.2383 17.289L59.2479 17.2793Z" fill="#17212C"/>
<path d="M72.082 8.55714H82.2281V10.6698H74.7318V12.6855H81.968V14.7012H74.7318V16.872H82.2281V18.9846H72.082V8.54745V8.55714Z" fill="#17212C"/>
<path d="M84.1659 8.55714H86.9023L93.1846 15.4862V8.55714H95.844V18.9943H93.281L86.806 11.8618V18.9943H84.1562V8.55714H84.1659Z" fill="#17212C"/>
<path d="M98.1367 8.55714H100.786V18.9943H98.1367V8.55714Z" fill="#17212C"/>
<path d="M102.512 13.7806C102.512 10.3984 105.316 8.3827 109.141 8.3827C112.966 8.3827 115.77 10.3984 115.77 13.7806C115.77 17.1627 112.966 19.1785 109.141 19.1785C105.316 19.1785 102.512 17.1627 102.512 13.7806ZM109.141 17.0368C111.502 17.0368 113.043 15.7672 113.043 13.7806C113.043 11.7939 111.502 10.5244 109.141 10.5244C106.78 10.5244 105.239 11.8036 105.239 13.7806C105.239 15.7575 106.78 17.0368 109.141 17.0368Z" fill="#17212C"/>
<path d="M117.514 8.55714H125.029C127.438 8.55714 128.854 9.87511 128.854 11.9877C128.854 14.1004 127.823 14.8175 126.128 15.1955L129.009 18.9943H125.79L123.237 15.3796H120.154V18.9943H117.504V8.55714H117.514ZM124.711 13.2573C125.665 13.2573 126.205 12.8018 126.205 11.9781C126.205 11.1543 125.655 10.7279 124.711 10.7279H120.154V13.267H124.711V13.2573Z" fill="#17212C"/>
<path d="M134.828 13.7806C134.828 10.3984 137.69 8.3827 141.611 8.3827C145.533 8.3827 146.497 9.50686 147.431 10.9993L145.205 12.2688C144.473 11.1543 143.365 10.5341 141.611 10.5341C139.858 10.5341 137.545 11.8133 137.545 13.7903C137.545 15.7672 139.145 17.0464 141.611 17.0464C144.078 17.0464 144.473 16.4359 145.109 15.4184L147.412 16.6588C146.458 18.0543 144.483 19.1978 141.611 19.1978C138.74 19.1978 134.828 17.1821 134.828 13.8V13.7806Z" fill="#17212C"/>
<path d="M152.462 8.55714H155.593L160.604 18.9943H157.646L156.855 17.2306H151.209L150.419 18.9943H147.461L152.471 8.55714H152.462ZM155.95 15.1955L154.032 10.8733L152.105 15.1955H155.95Z" fill="#17212C"/>
<path d="M161.644 8.55714H169.16C171.569 8.55714 172.985 9.87511 172.985 11.9877C172.985 14.1004 171.954 14.8175 170.258 15.1955L173.139 18.9943H169.921L167.368 15.3796H164.285V18.9943H161.635V8.55714H161.644ZM168.852 13.2573C169.806 13.2573 170.345 12.8018 170.345 11.9781C170.345 11.1543 169.796 10.7279 168.852 10.7279H164.294V13.267H168.852V13.2573Z" fill="#17212C"/>
<path d="M174.795 8.55714H184.941V10.6698H177.445V12.6855H184.681V14.7012H177.445V16.872H184.941V18.9846H174.795V8.54745V8.55714Z" fill="#17212C"/>
<path d="M83.5293 25.8071H85.8803L89.6381 33.6471H87.422L86.8246 32.3194H82.585L81.9876 33.6471H79.7715L83.5293 25.8071ZM86.1501 30.7883L84.7145 27.5418L83.2691 30.7883H86.1501Z" fill="#17212C"/>
<path d="M92.7598 25.8071H94.7447V31.9512H99.5238V33.6471H92.7598V25.8071Z" fill="#17212C"/>
<path d="M103.1 25.8071H105.085V31.9512H109.864V33.6471H103.1V25.8071Z" fill="#17212C"/>
<path d="M113.438 25.8071H115.422V33.6471H113.438V25.8071Z" fill="#17212C"/>
<path d="M122.303 25.8071H124.654L128.412 33.6471H126.195L125.598 32.3194H121.358L120.761 33.6471H118.545L122.303 25.8071ZM124.924 30.7883L123.488 27.5418L122.043 30.7883H124.924Z" fill="#17212C"/>
<path d="M131.533 25.8071H133.586L138.307 31.0112V25.8071H140.301V33.6471H138.374L133.518 28.288V33.6471H131.533V25.8071Z" fill="#17212C"/>
<path d="M143.934 29.7319C143.934 27.1929 146.082 25.6811 149.031 25.6811C151.979 25.6811 152.702 26.5242 153.396 27.6387L151.729 28.5884C151.179 27.755 150.351 27.2801 149.031 27.2801C147.711 27.2801 145.986 28.2395 145.986 29.7223C145.986 31.205 147.19 32.1644 149.031 32.1644C150.871 32.1644 151.179 31.7089 151.661 30.9433L153.386 31.8736C152.673 32.9203 151.189 33.7731 149.031 33.7731C146.872 33.7731 143.934 32.2613 143.934 29.7223V29.7319Z" fill="#17212C"/>
<path d="M156.797 25.8071H164.418V27.3964H158.791V28.9082H164.226V30.42H158.791V32.0578H164.418V33.6471H156.797V25.8071Z" fill="#17212C"/>
<path d="M83.5293 25.8071H85.8803L89.6381 33.6471H87.422L86.8246 32.3194H82.585L81.9876 33.6471H79.7715L83.5293 25.8071ZM86.1501 30.7883L84.7145 27.5418L83.2691 30.7883H86.1501Z" fill="#17212C"/>
<path d="M92.7598 25.8071H94.7447V31.9512H99.5238V33.6471H92.7598V25.8071Z" fill="#17212C"/>
<path d="M103.1 25.8071H105.085V31.9512H109.864V33.6471H103.1V25.8071Z" fill="#17212C"/>
<path d="M113.438 25.8071H115.422V33.6471H113.438V25.8071Z" fill="#17212C"/>
<path d="M122.303 25.8071H124.654L128.412 33.6471H126.195L125.598 32.3194H121.358L120.761 33.6471H118.545L122.303 25.8071ZM124.924 30.7883L123.488 27.5418L122.043 30.7883H124.924Z" fill="#17212C"/>
<path d="M131.533 25.8071H133.586L138.307 31.0112V25.8071H140.301V33.6471H138.374L133.518 28.288V33.6471H131.533V25.8071Z" fill="#17212C"/>
<path d="M143.934 29.7319C143.934 27.1929 146.082 25.6811 149.031 25.6811C151.979 25.6811 152.702 26.5242 153.396 27.6387L151.729 28.5884C151.179 27.755 150.351 27.2801 149.031 27.2801C147.711 27.2801 145.986 28.2395 145.986 29.7223C145.986 31.205 147.19 32.1644 149.031 32.1644C150.871 32.1644 151.179 31.7089 151.661 30.9433L153.386 31.8736C152.673 32.9203 151.189 33.7731 149.031 33.7731C146.872 33.7731 143.934 32.2613 143.934 29.7223V29.7319Z" fill="#17212C"/>
<path d="M156.797 25.8071H164.418V27.3964H158.791V28.9082H164.226V30.42H158.791V32.0578H164.418V33.6471H156.797V25.8071Z" fill="#17212C"/>
<path d="M61.1939 40.4405H62.1671L64.152 44.5398H63.2559L62.8993 43.7645H60.4616L60.1051 44.5398H59.209L61.1939 40.4405ZM62.5717 43.057L61.6853 41.1576L60.7892 43.057H62.5717Z" fill="#17212C"/>
<path d="M65.8671 40.4405H66.7053L69.5092 43.4738V40.4405H70.309V44.5398H69.5285L66.6572 41.4387V44.5398H65.8574V40.4405H65.8671Z" fill="#17212C"/>
<path d="M77.0825 40.4405H78.0557L80.0406 44.5398H79.1445L78.788 43.7645H76.3503L75.9937 44.5398H75.0977L77.0825 40.4405ZM78.4604 43.057L77.574 41.1576L76.6779 43.057H78.4604Z" fill="#17212C"/>
<path d="M81.7559 40.4405H82.5556V44.5398H81.7559V40.4405Z" fill="#17212C"/>
<path d="M89.3286 40.4405H90.3018L92.2867 44.5398H91.3906L91.0341 43.7645H88.5964L88.2398 44.5398H87.3438L89.3286 40.4405ZM90.7065 43.057L89.8201 41.1576L88.924 43.057H90.7065Z" fill="#17212C"/>
<path d="M94.0018 40.4405H94.8401L97.644 43.4738V40.4405H98.4438V44.5398H97.6633L94.7919 41.4387V44.5398H93.9922V40.4405H94.0018Z" fill="#17212C"/>
<path d="M102.145 40.4405H103.118L105.103 44.5398H104.207L103.851 43.7645H101.413L101.056 44.5398H100.16L102.145 40.4405ZM103.523 43.057L102.636 41.1576L101.74 43.057H103.523Z" fill="#17212C"/>
<path d="M106.818 40.4405H107.618V43.8323H110.249V44.5398H106.818V40.4405Z" fill="#17212C"/>
<path d="M112.791 42.8729L110.777 40.4405H111.818L113.186 42.1364L114.535 40.4405H115.585L113.581 42.8729V44.5398H112.782V42.8729H112.791Z" fill="#17212C"/>
<path d="M118.679 41.1479H117.031V40.4308H121.117V41.1479H119.469V44.5398H118.669V41.1479H118.679Z" fill="#17212C"/>
<path d="M123.033 40.4405H123.833V44.5398H123.033V40.4405Z" fill="#17212C"/>
<path d="M125.818 42.495C125.818 41.2158 126.859 40.3726 128.439 40.3726C130.019 40.3726 130.251 40.7894 130.646 41.3708L129.99 41.7972C129.644 41.3224 129.171 41.0801 128.439 41.0801C127.35 41.0801 126.637 41.6422 126.637 42.495C126.637 43.3478 127.35 43.9099 128.439 43.9099C129.528 43.9099 129.653 43.6676 129.942 43.2412L130.646 43.6579C130.241 44.2103 129.518 44.627 128.439 44.627C126.859 44.627 125.818 43.7839 125.818 42.5047V42.495Z" fill="#17212C"/>
<path d="M132.197 43.8226L132.679 43.2412C133.084 43.6094 133.729 43.9002 134.481 43.9002C135.232 43.9002 135.685 43.687 135.685 43.3672C135.685 43.0474 135.223 42.902 134.355 42.8148C133.296 42.7179 132.332 42.5434 132.332 41.5937C132.332 40.644 133.113 40.3533 134.346 40.3533C135.579 40.3533 135.916 40.6052 136.408 41.0607L135.926 41.6325C135.57 41.3224 135.03 41.0607 134.288 41.0607C133.546 41.0607 133.161 41.2255 133.161 41.5162C133.161 41.8069 133.546 41.9329 134.49 42.0492C135.541 42.1752 136.514 42.3399 136.514 43.2702C136.514 44.2006 135.782 44.5979 134.433 44.5979C133.084 44.5979 132.583 44.1909 132.188 43.8129L132.197 43.8226Z" fill="#17212C"/>
<path d="M141.342 42.495C141.342 41.2158 142.382 40.3726 143.963 40.3726C145.543 40.3726 145.774 40.7894 146.169 41.3708L145.514 41.7972C145.167 41.3224 144.695 41.0801 143.963 41.0801C142.874 41.0801 142.161 41.6422 142.161 42.495C142.161 43.3478 142.874 43.9099 143.963 43.9099C145.051 43.9099 145.177 43.6676 145.466 43.2412L146.169 43.6579C145.764 44.2103 145.042 44.627 143.963 44.627C142.382 44.627 141.342 43.7839 141.342 42.5047V42.495Z" fill="#17212C"/>
<path d="M147.777 42.495C147.777 41.2158 148.789 40.3726 150.34 40.3726C151.892 40.3726 152.903 41.2158 152.903 42.495C152.903 43.7742 151.892 44.6173 150.34 44.6173C148.789 44.6173 147.777 43.7742 147.777 42.495ZM150.34 43.9099C151.391 43.9099 152.075 43.3478 152.075 42.495C152.075 41.6422 151.391 41.0801 150.34 41.0801C149.29 41.0801 148.606 41.6422 148.606 42.495C148.606 43.3478 149.29 43.9099 150.34 43.9099Z" fill="#17212C"/>
<path d="M154.889 40.4405H156.016L157.461 43.3672L158.907 40.4405H160.034V44.5398H159.234V41.3611L157.664 44.5398H157.259L155.688 41.3611V44.5398H154.889V40.4405Z" fill="#17212C"/>
<path d="M162.221 40.4405H165.082C165.998 40.4405 166.547 40.9444 166.547 41.7488C166.547 42.5531 165.988 43.057 165.082 43.057H163.011V44.5495H162.211V40.4502L162.221 40.4405ZM165.024 42.3399C165.477 42.3399 165.718 42.1267 165.718 41.7391C165.718 41.3514 165.477 41.1382 165.024 41.1382H163.011V42.3302H165.024V42.3399Z" fill="#17212C"/>
<path d="M169.323 40.4405H170.296L172.281 44.5398H171.385L171.028 43.7645H168.59L168.234 44.5398H167.338L169.323 40.4405ZM170.701 43.057L169.814 41.1576L168.918 43.057H170.701Z" fill="#17212C"/>
<path d="M173.996 40.4405H174.834L177.638 43.4738V40.4405H178.438V44.5398H177.657L174.786 41.4387V44.5398H173.986V40.4405H173.996Z" fill="#17212C"/>
<path d="M182.176 42.8729L180.162 40.4405H181.203L182.571 42.1364L183.92 40.4405H184.97L182.966 42.8729V44.5398H182.166V42.8729H182.176Z" fill="#17212C"/>
<path d="M61.1939 40.4405H62.1671L64.152 44.5398H63.2559L62.8993 43.7645H60.4616L60.1051 44.5398H59.209L61.1939 40.4405ZM62.5717 43.057L61.6853 41.1576L60.7892 43.057H62.5717Z" fill="#17212C"/>
<path d="M65.8671 40.4405H66.7053L69.5092 43.4738V40.4405H70.309V44.5398H69.5285L66.6572 41.4387V44.5398H65.8574V40.4405H65.8671Z" fill="#17212C"/>
<path d="M77.0825 40.4405H78.0557L80.0406 44.5398H79.1445L78.788 43.7645H76.3503L75.9937 44.5398H75.0977L77.0825 40.4405ZM78.4604 43.057L77.574 41.1576L76.6779 43.057H78.4604Z" fill="#17212C"/>
<path d="M81.7559 40.4405H82.5556V44.5398H81.7559V40.4405Z" fill="#17212C"/>
<path d="M89.3286 40.4405H90.3018L92.2867 44.5398H91.3906L91.0341 43.7645H88.5964L88.2398 44.5398H87.3438L89.3286 40.4405ZM90.7065 43.057L89.8201 41.1576L88.924 43.057H90.7065Z" fill="#17212C"/>
<path d="M94.0018 40.4405H94.8401L97.644 43.4738V40.4405H98.4438V44.5398H97.6633L94.7919 41.4387V44.5398H93.9922V40.4405H94.0018Z" fill="#17212C"/>
<path d="M102.145 40.4405H103.118L105.103 44.5398H104.207L103.851 43.7645H101.413L101.056 44.5398H100.16L102.145 40.4405ZM103.523 43.057L102.636 41.1576L101.74 43.057H103.523Z" fill="#17212C"/>
<path d="M106.818 40.4405H107.618V43.8323H110.249V44.5398H106.818V40.4405Z" fill="#17212C"/>
<path d="M112.791 42.8729L110.777 40.4405H111.818L113.186 42.1364L114.535 40.4405H115.585L113.581 42.8729V44.5398H112.782V42.8729H112.791Z" fill="#17212C"/>
<path d="M118.679 41.1479H117.031V40.4308H121.117V41.1479H119.469V44.5398H118.669V41.1479H118.679Z" fill="#17212C"/>
<path d="M123.033 40.4405H123.833V44.5398H123.033V40.4405Z" fill="#17212C"/>
<path d="M125.818 42.495C125.818 41.2158 126.859 40.3726 128.439 40.3726C130.019 40.3726 130.251 40.7894 130.646 41.3708L129.99 41.7972C129.644 41.3224 129.171 41.0801 128.439 41.0801C127.35 41.0801 126.637 41.6422 126.637 42.495C126.637 43.3478 127.35 43.9099 128.439 43.9099C129.528 43.9099 129.653 43.6676 129.942 43.2412L130.646 43.6579C130.241 44.2103 129.518 44.627 128.439 44.627C126.859 44.627 125.818 43.7839 125.818 42.5047V42.495Z" fill="#17212C"/>
<path d="M132.197 43.8226L132.679 43.2412C133.084 43.6094 133.729 43.9002 134.481 43.9002C135.232 43.9002 135.685 43.687 135.685 43.3672C135.685 43.0474 135.223 42.902 134.355 42.8148C133.296 42.7179 132.332 42.5434 132.332 41.5937C132.332 40.644 133.113 40.3533 134.346 40.3533C135.579 40.3533 135.916 40.6052 136.408 41.0607L135.926 41.6325C135.57 41.3224 135.03 41.0607 134.288 41.0607C133.546 41.0607 133.161 41.2255 133.161 41.5162C133.161 41.8069 133.546 41.9329 134.49 42.0492C135.541 42.1752 136.514 42.3399 136.514 43.2702C136.514 44.2006 135.782 44.5979 134.433 44.5979C133.084 44.5979 132.583 44.1909 132.188 43.8129L132.197 43.8226Z" fill="#17212C"/>
<path d="M141.342 42.495C141.342 41.2158 142.382 40.3726 143.963 40.3726C145.543 40.3726 145.774 40.7894 146.169 41.3708L145.514 41.7972C145.167 41.3224 144.695 41.0801 143.963 41.0801C142.874 41.0801 142.161 41.6422 142.161 42.495C142.161 43.3478 142.874 43.9099 143.963 43.9099C145.051 43.9099 145.177 43.6676 145.466 43.2412L146.169 43.6579C145.764 44.2103 145.042 44.627 143.963 44.627C142.382 44.627 141.342 43.7839 141.342 42.5047V42.495Z" fill="#17212C"/>
<path d="M147.777 42.495C147.777 41.2158 148.789 40.3726 150.34 40.3726C151.892 40.3726 152.903 41.2158 152.903 42.495C152.903 43.7742 151.892 44.6173 150.34 44.6173C148.789 44.6173 147.777 43.7742 147.777 42.495ZM150.34 43.9099C151.391 43.9099 152.075 43.3478 152.075 42.495C152.075 41.6422 151.391 41.0801 150.34 41.0801C149.29 41.0801 148.606 41.6422 148.606 42.495C148.606 43.3478 149.29 43.9099 150.34 43.9099Z" fill="#17212C"/>
<path d="M154.889 40.4405H156.016L157.461 43.3672L158.907 40.4405H160.034V44.5398H159.234V41.3611L157.664 44.5398H157.259L155.688 41.3611V44.5398H154.889V40.4405Z" fill="#17212C"/>
<path d="M162.221 40.4405H165.082C165.998 40.4405 166.547 40.9444 166.547 41.7488C166.547 42.5531 165.988 43.057 165.082 43.057H163.011V44.5495H162.211V40.4502L162.221 40.4405ZM165.024 42.3399C165.477 42.3399 165.718 42.1267 165.718 41.7391C165.718 41.3514 165.477 41.1382 165.024 41.1382H163.011V42.3302H165.024V42.3399Z" fill="#17212C"/>
<path d="M169.323 40.4405H170.296L172.281 44.5398H171.385L171.028 43.7645H168.59L168.234 44.5398H167.338L169.323 40.4405ZM170.701 43.057L169.814 41.1576L168.918 43.057H170.701Z" fill="#17212C"/>
<path d="M173.996 40.4405H174.834L177.638 43.4738V40.4405H178.438V44.5398H177.657L174.786 41.4387V44.5398H173.986V40.4405H173.996Z" fill="#17212C"/>
<path d="M182.176 42.8729L180.162 40.4405H181.203L182.571 42.1364L183.92 40.4405H184.97L182.966 42.8729V44.5398H182.166V42.8729H182.176Z" fill="#17212C"/>
</g>
<defs>
<clipPath id="clip0_101_1765">
<rect width="185" height="53" fill="white"/>
</clipPath>
</defs>
</svg>
