<svg width="300" height="85" viewBox="0 0 300 85" fill="none" xmlns="http://www.w3.org/2000/svg">
<g clip-path="url(#clip0_5_1057)">
<path d="M50.6255 35.1097L43.2386 0L35.836 35.1097L0.705078 42.5078L35.836 49.8903L43.2386 85L50.6255 49.8903L85.7565 42.5078L50.6255 35.1097ZM50.8744 35.9645L78.2917 41.7307H45.1047L50.8744 35.9645ZM42.461 7.46023V40.6272L36.6914 34.861L42.461 7.46023ZM42.461 77.5398L36.598 49.7193L36.4892 49.222L35.9915 49.1132L8.16982 43.2693H42.461V77.5398Z" fill="white"/>
<path d="M118.08 46.213H96.2305V48.7464H118.08V46.213Z" fill="white"/>
<path d="M299.295 46.213H277.445V48.7464H299.295V46.213Z" fill="white"/>
<path d="M96.332 27.7055L98.4159 24.869C100.074 26.274 102.887 27.4288 105.825 27.4288C108.762 27.4288 109.944 26.7263 109.944 25.6726C109.944 24.367 108.212 24.1168 105.198 23.8153C101.155 23.4143 96.9105 22.7102 96.9105 18.6693C96.9105 15.4816 100.176 13.4487 105.4 13.4487C108.741 13.4487 111.854 14.403 113.939 16.1841L111.88 18.9459C110.272 17.6901 107.837 16.7374 105.074 16.7374C102.688 16.7374 101.431 17.2891 101.431 18.2434C101.431 19.4479 102.963 19.7246 106.229 20.1256C110.248 20.6276 114.417 21.3301 114.417 25.1954C114.417 28.3831 111.252 30.7673 105.776 30.7673C101.758 30.7673 98.0909 29.2612 96.3336 27.7055H96.332Z" fill="white"/>
<path d="M117.053 13.7237H133.429V17.1119H121.323V20.3493H133.002V23.5868H121.323V27.076H133.429V30.4642H117.053V13.7222V13.7237Z" fill="white"/>
<path d="M136.542 13.7237H140.962L151.109 24.8426V13.7237H155.404V30.4657H151.26L140.812 19.0205V30.4657H136.544V13.7237H136.542Z" fill="white"/>
<path d="M159.097 13.7237H163.367V30.4657H159.097V13.7237Z" fill="white"/>
<path d="M166.155 22.1071C166.155 16.686 170.676 13.4471 176.855 13.4471C183.033 13.4471 187.554 16.6845 187.554 22.1071C187.554 27.5298 183.033 30.7672 176.855 30.7672C170.676 30.7672 166.155 27.5298 166.155 22.1071ZM176.853 27.3278C180.671 27.3278 183.158 25.2948 183.158 22.1071C183.158 18.9195 180.671 16.8865 176.853 16.8865C173.035 16.8865 170.549 18.9443 170.549 22.1071C170.549 25.27 173.035 27.3278 176.853 27.3278Z" fill="white"/>
<path d="M190.368 13.7237H202.498C206.391 13.7237 208.677 15.8328 208.677 19.221C208.677 22.1584 207.019 23.7639 204.282 24.367L208.929 30.4657H203.73L199.61 24.6669H194.637V30.4657H190.366V13.7237H190.368ZM201.996 21.2539C203.527 21.2539 204.406 20.5265 204.406 19.1961C204.406 17.8657 203.527 17.1881 201.996 17.1881H194.637V21.2539H201.996Z" fill="white"/>
<path d="M218.321 22.1071C218.321 16.686 222.943 13.4471 229.271 13.4471C233.943 13.4471 237.157 15.2546 238.664 17.6388L235.073 19.6717C233.893 17.889 232.109 16.885 229.271 16.885C225.302 16.885 222.716 18.9428 222.716 22.1056C222.716 25.2684 225.302 27.3262 229.271 27.3262C232.06 27.3262 233.893 26.347 234.923 24.7151L238.639 26.6983C237.108 28.9317 233.918 30.7641 229.271 30.7641C222.942 30.7641 218.321 27.5267 218.321 22.104V22.1071Z" fill="white"/>
<path d="M246.778 13.7237H251.826L259.913 30.4657H255.14L253.858 27.6293H244.742L243.461 30.4657H238.689L246.776 13.7237H246.778ZM252.404 24.367L249.316 17.4398L246.201 24.367H252.404Z" fill="white"/>
<path d="M261.597 13.7237H273.727C277.619 13.7237 279.906 15.8328 279.906 19.221C279.906 22.1584 278.248 23.7639 275.511 24.367L280.157 30.4657H274.959L270.839 24.6669H265.866V30.4657H261.597V13.7237ZM273.225 21.2539C274.756 21.2539 275.635 20.5265 275.635 19.1961C275.635 17.8657 274.756 17.1881 273.225 17.1881H265.866V21.2539H273.225Z" fill="white"/>
<path d="M282.82 13.7237H299.196V17.1119H287.091V20.3493H298.77V23.5868H287.091V27.076H299.196V30.4642H282.82V13.7222V13.7237Z" fill="white"/>
<path d="M135.523 41.3903H139.313L145.385 53.9592H141.802L140.841 51.83H133.996L133.035 53.9592H129.452L135.523 41.3903ZM139.747 49.3805L137.429 44.1801L135.091 49.3805H139.749H139.747Z" fill="white"/>
<path d="M150.419 41.3903H153.624V51.2456H161.336V53.9592H150.419V41.3903Z" fill="white"/>
<path d="M167.105 41.3903H170.311V51.2456H178.023V53.9592H167.105V41.3903Z" fill="white"/>
<path d="M183.792 41.3903H186.997V53.9592H183.792V41.3903Z" fill="white"/>
<path d="M198.103 41.3903H201.892L207.964 53.9592H204.381L203.42 51.83H196.575L195.614 53.9592H192.031L198.103 41.3903ZM202.326 49.3805L200.008 44.1801L197.67 49.3805H202.328H202.326Z" fill="white"/>
<path d="M212.999 41.3903H216.317L223.934 49.738V41.3903H227.158V53.9592H224.046L216.202 45.366V53.9592H212.997V41.3903H212.999Z" fill="white"/>
<path d="M233.021 47.6849C233.021 43.6144 236.49 41.1836 241.241 41.1836C244.748 41.1836 247.162 42.5404 248.294 44.3309L245.597 45.8571C244.711 44.5189 243.372 43.7651 241.241 43.7651C238.261 43.7651 236.319 45.31 236.319 47.6849C236.319 50.0597 238.261 51.6046 241.241 51.6046C243.334 51.6046 244.711 50.8694 245.484 49.6447L248.273 51.1337C247.123 52.8107 244.729 54.1861 241.241 54.1861C236.49 54.1861 233.021 51.7553 233.021 47.6849Z" fill="white"/>
<path d="M253.78 41.3903H266.074V43.9345H256.985V46.3653H265.753V48.7961H256.985V51.415H266.074V53.9592H253.78V41.3903Z" fill="white"/>
<path d="M135.523 41.3903H139.313L145.385 53.9592H141.802L140.841 51.83H133.996L133.035 53.9592H129.452L135.523 41.3903ZM139.747 49.3805L137.429 44.1801L135.091 49.3805H139.749H139.747Z" fill="white"/>
<path d="M150.419 41.3903H153.624V51.2456H161.336V53.9592H150.419V41.3903Z" fill="white"/>
<path d="M167.105 41.3903H170.311V51.2456H178.023V53.9592H167.105V41.3903Z" fill="white"/>
<path d="M183.792 41.3903H186.997V53.9592H183.792V41.3903Z" fill="white"/>
<path d="M198.103 41.3903H201.892L207.964 53.9592H204.381L203.42 51.83H196.575L195.614 53.9592H192.031L198.103 41.3903ZM202.326 49.3805L200.008 44.1801L197.67 49.3805H202.328H202.326Z" fill="white"/>
<path d="M212.999 41.3903H216.317L223.934 49.738V41.3903H227.158V53.9592H224.046L216.202 45.366V53.9592H212.997V41.3903H212.999Z" fill="white"/>
<path d="M233.021 47.6849C233.021 43.6144 236.49 41.1836 241.241 41.1836C244.748 41.1836 247.162 42.5404 248.294 44.3309L245.597 45.8571C244.711 44.5189 243.372 43.7651 241.241 43.7651C238.261 43.7651 236.319 45.31 236.319 47.6849C236.319 50.0597 238.261 51.6046 241.241 51.6046C243.334 51.6046 244.711 50.8694 245.484 49.6447L248.273 51.1337C247.123 52.8107 244.729 54.1861 241.241 54.1861C236.49 54.1861 233.021 51.7553 233.021 47.6849Z" fill="white"/>
<path d="M253.78 41.3903H266.074V43.9345H256.985V46.3653H265.753V48.7961H256.985V51.415H266.074V53.9592H253.78V41.3903Z" fill="white"/>
<path d="M99.4712 64.8527H101.04L104.249 71.4348H102.807L102.224 70.1914H98.2846L97.7014 71.4348H96.2598L99.4681 64.8527H99.4712ZM101.693 69.0553L100.261 66.0059L98.8196 69.0553H101.692H101.693Z" fill="white"/>
<path d="M107.015 64.8527H108.368L112.899 69.7174V64.8527H114.182V71.4348H112.929L108.298 66.4613V71.4348H107.015V64.8527Z" fill="white"/>
<path d="M125.122 64.8527H126.691L129.899 71.4348H128.457L127.874 70.1914H123.935L123.352 71.4348H121.91L125.118 64.8527H125.122ZM127.342 69.0553L125.91 66.0059L124.468 69.0553H127.341H127.342Z" fill="white"/>
<path d="M132.664 64.8527H133.947V71.4348H132.664V64.8527Z" fill="white"/>
<path d="M144.888 64.8527H146.457L149.666 71.4348H148.224L147.641 70.1914H143.702L143.118 71.4348H141.677L144.885 64.8527H144.888ZM147.109 69.0553L145.677 66.0059L144.235 69.0553H147.107H147.109Z" fill="white"/>
<path d="M152.431 64.8527H153.784L158.315 69.7174V64.8527H159.598V71.4348H158.345L153.714 66.4613V71.4348H152.431V64.8527Z" fill="white"/>
<path d="M165.571 64.8527H167.142L170.35 71.4348H168.909L168.325 70.1914H164.386L163.803 71.4348H162.361L165.57 64.8527H165.571ZM167.792 69.0553L166.36 66.0059L164.918 69.0553H167.79H167.792Z" fill="white"/>
<path d="M173.114 64.8527H174.397V70.2987H178.643V71.4333H173.114V64.8512V64.8527Z" fill="white"/>
<path d="M182.75 68.76L179.501 64.8527H181.179L183.39 67.5757L185.572 64.8527H187.271L184.033 68.76V71.4348H182.75V68.76Z" fill="white"/>
<path d="M192.258 65.9966H189.602V64.8527H196.197V65.9966H193.541V71.4333H192.258V65.9966Z" fill="white"/>
<path d="M199.287 64.8527H200.57V71.4348H199.287V64.8527Z" fill="white"/>
<path d="M203.771 68.1476C203.771 66.0945 205.449 64.7439 208.007 64.7439C209.755 64.7439 210.929 65.4153 211.571 66.3525L210.515 67.0333C209.962 66.2733 209.192 65.8785 208.007 65.8785C206.249 65.8785 205.103 66.7862 205.103 68.1476C205.103 69.5091 206.249 70.4168 208.007 70.4168C209.172 70.4168 209.962 70.022 210.436 69.3413L211.571 70.0018C210.92 70.88 209.744 71.5514 208.007 71.5514C205.45 71.5514 203.771 70.1992 203.771 68.1476Z" fill="white"/>
<path d="M214.067 70.2894L214.848 69.3615C215.5 69.9536 216.546 70.4168 217.761 70.4168C219.035 70.4168 219.706 70.0811 219.706 69.5682C219.706 68.9465 218.966 68.8191 217.563 68.6901C215.856 68.5315 214.296 68.2564 214.296 66.7271C214.296 65.5226 215.549 64.7439 217.545 64.7439C218.957 64.7439 220.083 65.148 220.871 65.8785L220.092 66.7955C219.52 66.3028 218.65 65.8785 217.456 65.8785C216.262 65.8785 215.64 66.1443 215.64 66.609C215.64 67.1623 216.262 67.2804 217.792 67.4576C219.49 67.655 221.05 67.9316 221.05 69.4206C221.05 70.5955 219.876 71.5514 217.692 71.5514C216.153 71.5514 214.711 70.9002 214.069 70.2878L214.067 70.2894Z" fill="white"/>
<path d="M228.827 68.1476C228.827 66.0945 230.505 64.7439 233.063 64.7439C234.811 64.7439 235.986 65.4153 236.628 66.3525L235.572 67.0333C235.018 66.2733 234.248 65.8785 233.063 65.8785C231.306 65.8785 230.16 66.7862 230.16 68.1476C230.16 69.5091 231.306 70.4168 233.063 70.4168C234.228 70.4168 235.018 70.022 235.493 69.3413L236.628 70.0018C235.976 70.88 234.8 71.5514 233.063 71.5514C230.507 71.5514 228.827 70.1992 228.827 68.1476Z" fill="white"/>
<path d="M239.225 68.1476C239.225 66.0945 240.864 64.7439 243.361 64.7439C245.859 64.7439 247.498 66.0961 247.498 68.1476C247.498 70.1992 245.859 71.5514 243.361 71.5514C240.864 71.5514 239.225 70.1992 239.225 68.1476ZM243.361 70.4168C245.06 70.4168 246.165 69.5185 246.165 68.1476C246.165 66.7768 245.06 65.8785 243.361 65.8785C241.663 65.8785 240.557 66.7862 240.557 68.1476C240.557 69.5091 241.663 70.4168 243.361 70.4168Z" fill="white"/>
<path d="M250.698 64.8527H252.514L254.844 69.5495L257.174 64.8527H258.99V71.4348H257.707V66.3339L255.169 71.4348H254.517L251.979 66.3339V71.4348H250.696V64.8527H250.698Z" fill="white"/>
<path d="M262.524 64.8527H267.145C268.625 64.8527 269.504 65.6625 269.504 66.9447C269.504 68.2269 268.605 69.0367 267.145 69.0367H263.807V71.4348H262.524V64.8527ZM267.056 67.9005C267.787 67.9005 268.182 67.5648 268.182 66.9431C268.182 66.3214 267.787 65.9857 267.056 65.9857H263.807V67.9005H267.056Z" fill="white"/>
<path d="M273.987 64.8527H275.558L278.766 71.4348H277.325L276.741 70.1914H272.802L272.219 71.4348H270.777L273.986 64.8527H273.987ZM276.208 69.0553L274.776 66.0059L273.334 69.0553H276.206H276.208Z" fill="white"/>
<path d="M281.53 64.8527H282.883L287.415 69.7174V64.8527H288.698V71.4348H287.445L282.813 66.4613V71.4348H281.53V64.8527Z" fill="white"/>
<path d="M294.741 68.76L291.492 64.8527H293.17L295.382 67.5757L297.564 64.8527H299.262L296.024 68.76V71.4348H294.741V68.76Z" fill="white"/>
<path d="M99.4712 64.8527H101.04L104.249 71.4348H102.807L102.224 70.1914H98.2846L97.7014 71.4348H96.2598L99.4681 64.8527H99.4712ZM101.693 69.0553L100.261 66.0059L98.8196 69.0553H101.692H101.693Z" fill="white"/>
<path d="M107.015 64.8527H108.368L112.899 69.7174V64.8527H114.182V71.4348H112.929L108.298 66.4613V71.4348H107.015V64.8527Z" fill="white"/>
<path d="M125.122 64.8527H126.691L129.899 71.4348H128.457L127.874 70.1914H123.935L123.352 71.4348H121.91L125.118 64.8527H125.122ZM127.342 69.0553L125.91 66.0059L124.468 69.0553H127.341H127.342Z" fill="white"/>
<path d="M132.664 64.8527H133.947V71.4348H132.664V64.8527Z" fill="white"/>
<path d="M144.888 64.8527H146.457L149.666 71.4348H148.224L147.641 70.1914H143.702L143.118 71.4348H141.677L144.885 64.8527H144.888ZM147.109 69.0553L145.677 66.0059L144.235 69.0553H147.107H147.109Z" fill="white"/>
<path d="M152.431 64.8527H153.784L158.315 69.7174V64.8527H159.598V71.4348H158.345L153.714 66.4613V71.4348H152.431V64.8527Z" fill="white"/>
<path d="M165.571 64.8527H167.142L170.35 71.4348H168.909L168.325 70.1914H164.386L163.803 71.4348H162.361L165.57 64.8527H165.571ZM167.792 69.0553L166.36 66.0059L164.918 69.0553H167.79H167.792Z" fill="white"/>
<path d="M173.114 64.8527H174.397V70.2987H178.643V71.4333H173.114V64.8512V64.8527Z" fill="white"/>
<path d="M182.75 68.76L179.501 64.8527H181.179L183.39 67.5757L185.572 64.8527H187.271L184.033 68.76V71.4348H182.75V68.76Z" fill="white"/>
<path d="M192.258 65.9966H189.602V64.8527H196.197V65.9966H193.541V71.4333H192.258V65.9966Z" fill="white"/>
<path d="M199.287 64.8527H200.57V71.4348H199.287V64.8527Z" fill="white"/>
<path d="M203.771 68.1476C203.771 66.0945 205.449 64.7439 208.007 64.7439C209.755 64.7439 210.929 65.4153 211.571 66.3525L210.515 67.0333C209.962 66.2733 209.192 65.8785 208.007 65.8785C206.249 65.8785 205.103 66.7862 205.103 68.1476C205.103 69.5091 206.249 70.4168 208.007 70.4168C209.172 70.4168 209.962 70.022 210.436 69.3413L211.571 70.0018C210.92 70.88 209.744 71.5514 208.007 71.5514C205.45 71.5514 203.771 70.1992 203.771 68.1476Z" fill="white"/>
<path d="M214.067 70.2894L214.848 69.3615C215.5 69.9536 216.546 70.4168 217.761 70.4168C219.035 70.4168 219.706 70.0811 219.706 69.5682C219.706 68.9465 218.966 68.8191 217.563 68.6901C215.856 68.5315 214.296 68.2564 214.296 66.7271C214.296 65.5226 215.549 64.7439 217.545 64.7439C218.957 64.7439 220.083 65.148 220.871 65.8785L220.092 66.7955C219.52 66.3028 218.65 65.8785 217.456 65.8785C216.262 65.8785 215.64 66.1443 215.64 66.609C215.64 67.1623 216.262 67.2804 217.792 67.4576C219.49 67.655 221.05 67.9316 221.05 69.4206C221.05 70.5955 219.876 71.5514 217.692 71.5514C216.153 71.5514 214.711 70.9002 214.069 70.2878L214.067 70.2894Z" fill="white"/>
<path d="M228.827 68.1476C228.827 66.0945 230.505 64.7439 233.063 64.7439C234.811 64.7439 235.986 65.4153 236.628 66.3525L235.572 67.0333C235.018 66.2733 234.248 65.8785 233.063 65.8785C231.306 65.8785 230.16 66.7862 230.16 68.1476C230.16 69.5091 231.306 70.4168 233.063 70.4168C234.228 70.4168 235.018 70.022 235.493 69.3413L236.628 70.0018C235.976 70.88 234.8 71.5514 233.063 71.5514C230.507 71.5514 228.827 70.1992 228.827 68.1476Z" fill="white"/>
<path d="M239.225 68.1476C239.225 66.0945 240.864 64.7439 243.361 64.7439C245.859 64.7439 247.498 66.0961 247.498 68.1476C247.498 70.1992 245.859 71.5514 243.361 71.5514C240.864 71.5514 239.225 70.1992 239.225 68.1476ZM243.361 70.4168C245.06 70.4168 246.165 69.5185 246.165 68.1476C246.165 66.7768 245.06 65.8785 243.361 65.8785C241.663 65.8785 240.557 66.7862 240.557 68.1476C240.557 69.5091 241.663 70.4168 243.361 70.4168Z" fill="white"/>
<path d="M250.698 64.8527H252.514L254.844 69.5495L257.174 64.8527H258.99V71.4348H257.707V66.3339L255.169 71.4348H254.517L251.979 66.3339V71.4348H250.696V64.8527H250.698Z" fill="white"/>
<path d="M262.524 64.8527H267.145C268.625 64.8527 269.504 65.6625 269.504 66.9447C269.504 68.2269 268.605 69.0367 267.145 69.0367H263.807V71.4348H262.524V64.8527ZM267.056 67.9005C267.787 67.9005 268.182 67.5648 268.182 66.9431C268.182 66.3214 267.787 65.9857 267.056 65.9857H263.807V67.9005H267.056Z" fill="white"/>
<path d="M273.987 64.8527H275.558L278.766 71.4348H277.325L276.741 70.1914H272.802L272.219 71.4348H270.777L273.986 64.8527H273.987ZM276.208 69.0553L274.776 66.0059L273.334 69.0553H276.206H276.208Z" fill="white"/>
<path d="M281.53 64.8527H282.883L287.415 69.7174V64.8527H288.698V71.4348H287.445L282.813 66.4613V71.4348H281.53V64.8527Z" fill="white"/>
<path d="M294.741 68.76L291.492 64.8527H293.17L295.382 67.5757L297.564 64.8527H299.262L296.024 68.76V71.4348H294.741V68.76Z" fill="white"/>
</g>
<defs>
<clipPath id="clip0_5_1057">
<rect width="298.59" height="85" fill="white" transform="translate(0.705078)"/>
</clipPath>
</defs>
</svg>
